<?xml version="1.0" encoding="utf-8"?>
<svg viewBox="0 0 375 374.999991" xmlns="http://www.w3.org/2000/svg">
  <defs>
    <clipPath id="clip2">
      <path d="M 84 24.027344 L 288 24.027344 L 288 234 L 84 234 Z M 84 24.027344 "/>
    </clipPath>
    <clipPath id="clip3">
      <path d="M 127 24.027344 L 244 24.027344 L 244 234 L 127 234 Z M 127 24.027344 "/>
    </clipPath>
  </defs>
  <path style="stroke: none; fill-rule: nonzero; fill: rgb(216, 250, 241); fill-opacity: 1; --darkreader-inline-stroke:none; --darkreader-inline-fill:#b9fcea;" d="M 132.91 228.074 C 131.176 228.074 129.535 227.301 128.426 225.969 C 105.871 198.785 90.121 157.484 90.121 125.535 C 90.121 72.75 133.027 29.805 185.77 29.805 C 238.512 29.805 281.418 72.75 281.418 125.535 C 281.418 157.484 265.664 198.785 243.109 225.969 C 242.004 227.301 240.359 228.074 238.629 228.074 L 132.91 228.074 Z M 132.91 228.074" data-darkreader-inline-stroke="" data-darkreader-inline-fill=""/>
  <g clip-path="url(#clip2)" clip-rule="nonzero">
    <path style="stroke: none; fill-rule: nonzero; fill: rgb(14, 38, 73); fill-opacity: 1; --darkreader-inline-stroke:none; --darkreader-inline-fill:#d1ccc5;" d="M 185.765625 35.636719 C 235.375 35.636719 275.589844 75.886719 275.589844 125.535156 C 275.589844 155.40625 261.027344 195.242188 238.625 222.242188 L 132.910156 222.242188 C 110.507813 195.242188 95.945313 155.40625 95.945313 125.535156 C 95.945313 75.886719 136.160156 35.636719 185.765625 35.636719 M 185.765625 23.972656 C 129.8125 23.972656 84.292969 69.535156 84.292969 125.535156 C 84.292969 159.253906 100.226563 201.109375 123.945313 229.691406 C 126.160156 232.359375 129.441406 233.90625 132.90625 233.90625 L 238.625 233.90625 C 242.089844 233.90625 245.375 232.359375 247.589844 229.691406 C 271.304688 201.109375 287.242188 159.253906 287.242188 125.535156 C 287.242188 69.535156 241.722656 23.972656 185.765625 23.972656 Z M 185.765625 23.972656 " data-darkreader-inline-stroke="" data-darkreader-inline-fill=""/>
  </g>
  <path style="stroke: none; fill-rule: nonzero; fill: rgb(165, 232, 218); fill-opacity: 1; --darkreader-inline-stroke:none; --darkreader-inline-fill:#98ead8;" d="M 104.441 170.574 C 110.906 189.148 120.75 207.586 132.91 222.242 L 238.625 222.242 C 261.027 195.242 275.59 155.406 275.59 125.535 C 275.59 105.039 268.723 86.156 257.188 71.035 C 223.477 133.445 151.332 159.766 104.441 170.574 Z M 104.441 170.574" data-darkreader-inline-stroke="" data-darkreader-inline-fill=""/>
  <path style="stroke: none; fill-rule: nonzero; fill: rgb(97, 209, 189); fill-opacity: 1; --darkreader-inline-stroke:none; --darkreader-inline-fill:#68d7c3;" d="M 116.012 196.914 C 120.922 206.035 126.605 214.645 132.906 222.242 L 238.625 222.242 C 258.992 197.695 272.875 162.535 275.23 133.902 C 223.207 171.309 162.352 188.77 116.012 196.914 Z M 116.012 196.914" data-darkreader-inline-stroke="" data-darkreader-inline-fill=""/>
  <g clip-path="url(#clip3)" clip-rule="nonzero">
    <path style="stroke: none; fill-rule: nonzero; fill: rgb(14, 38, 73); fill-opacity: 1; --darkreader-inline-stroke:none; --darkreader-inline-fill:#d1ccc5;" d="M 185.765625 35.636719 C 211.242188 35.636719 231.890625 75.886719 231.890625 125.535156 C 231.890625 155.40625 224.414063 195.242188 212.910156 222.242188 L 158.625 222.242188 C 147.121094 195.242188 139.644531 155.40625 139.644531 125.535156 C 139.644531 75.886719 160.292969 35.636719 185.765625 35.636719 M 185.765625 23.972656 C 168.859375 23.972656 153.59375 35.574219 142.785156 56.636719 C 133.246094 75.238281 127.992188 99.703125 127.992188 125.535156 C 127.992188 157.648438 136.179688 199.296875 147.90625 226.820313 C 149.738281 231.117188 153.953125 233.90625 158.625 233.90625 L 212.910156 233.90625 C 217.582031 233.90625 221.796875 231.117188 223.628906 226.820313 C 235.355469 199.296875 243.542969 157.648438 243.542969 125.535156 C 243.542969 99.703125 238.289063 75.238281 228.746094 56.636719 C 217.941406 35.574219 202.675781 23.972656 185.765625 23.972656 Z M 185.765625 23.972656 " data-darkreader-inline-stroke="" data-darkreader-inline-fill=""/>
  </g>
  <path style="stroke: none; fill-rule: nonzero; fill: rgb(14, 38, 73); fill-opacity: 1; --darkreader-inline-stroke:none; --darkreader-inline-fill:#d1ccc5;" d="M 150.32 306.797 C 147.648 306.797 145.246 304.953 144.641 302.238 L 128.859 231.637 C 128.16 228.496 130.137 225.379 133.273 224.676 C 136.41 223.961 139.527 225.949 140.23 229.094 L 156.008 299.691 C 156.711 302.832 154.734 305.953 151.598 306.652 C 151.168 306.75 150.742 306.797 150.32 306.797 Z M 150.32 306.797" data-darkreader-inline-stroke="" data-darkreader-inline-fill=""/>
  <path style="stroke: none; fill-rule: nonzero; fill: rgb(14, 38, 73); fill-opacity: 1; --darkreader-inline-stroke:none; --darkreader-inline-fill:#d1ccc5;" d="M 221.215 306.797 C 220.793 306.797 220.367 306.75 219.938 306.652 C 216.797 305.953 214.82 302.832 215.523 299.691 L 231.305 229.094 C 232.008 225.949 235.129 223.965 238.262 224.676 C 241.402 225.379 243.379 228.496 242.676 231.637 L 226.895 302.238 C 226.289 304.953 223.883 306.797 221.215 306.797 Z M 221.215 306.797" data-darkreader-inline-stroke="" data-darkreader-inline-fill=""/>
  <path style="stroke: none; fill-rule: nonzero; fill: rgb(14, 38, 73); fill-opacity: 1; --darkreader-inline-stroke:none; --darkreader-inline-fill:#d1ccc5;" d="M 185.766 306.797 C 182.551 306.797 179.941 304.184 179.941 300.965 L 179.941 231.469 C 179.941 228.25 182.551 225.641 185.766 225.641 C 188.984 225.641 191.594 228.25 191.594 231.469 L 191.594 300.965 C 191.594 304.184 188.984 306.797 185.766 306.797 Z M 185.766 306.797" data-darkreader-inline-stroke="" data-darkreader-inline-fill=""/>
  <path style="stroke: none; fill-rule: nonzero; fill-opacity: 1; --darkreader-inline-stroke:none; --darkreader-inline-fill:#b9fcea; fill: rgb(175, 212, 255);" d="M 226.551 336.172 C 226.551 338.852 224.383 341.023 221.707 341.023 L 149.828 341.023 C 147.152 341.023 144.984 338.852 144.984 336.172 L 144.984 309.496 C 144.984 306.82 147.152 304.648 149.828 304.648 L 221.707 304.648 C 224.383 304.648 226.551 306.82 226.551 309.496 L 226.551 336.172 Z M 226.551 336.172" data-darkreader-inline-stroke="" data-darkreader-inline-fill=""/>
  <path style="stroke: none; fill-rule: nonzero; fill: rgb(14, 38, 73); fill-opacity: 1; --darkreader-inline-stroke:none; --darkreader-inline-fill:#d1ccc5;" d="M 221.703 345.871 L 149.828 345.871 C 144.484 345.871 140.137 341.52 140.137 336.172 L 140.137 309.496 C 140.137 304.148 144.484 299.797 149.828 299.797 L 221.703 299.797 C 227.047 299.797 231.395 304.148 231.395 309.496 L 231.395 336.172 C 231.395 341.52 227.047 345.871 221.703 345.871 Z M 221.707 309.496 L 149.828 309.496 L 149.828 336.172 L 221.711 336.172 L 221.707 309.496 Z M 221.707 309.496" data-darkreader-inline-stroke="" data-darkreader-inline-fill=""/>
  <path style="stroke: none; fill-rule: nonzero; fill-opacity: 1; --darkreader-inline-stroke:none; --darkreader-inline-fill:#b9fcea; fill: rgb(216, 250, 241);" d="M 17.887 294.617 C 16.293 294.617 14.766 293.965 13.668 292.809 C 12.566 291.656 11.988 290.102 12.066 288.508 C 12.469 280.086 18.75 267.609 34.371 267.293 C 37.012 261.945 42.633 253.465 51.66 253.465 C 55.199 253.465 58.664 254.797 62.008 257.43 C 64.836 256.352 68.895 255.199 73.277 255.199 C 78.5 255.199 87.414 256.945 92.121 267.844 C 97.152 268.566 105.059 270.672 108.582 276.773 C 110.293 279.738 111.57 284.707 107.93 291.535 C 106.914 293.434 104.938 294.621 102.789 294.621 L 17.887 294.621 L 17.887 294.617 Z M 17.887 294.617" data-darkreader-inline-stroke="" data-darkreader-inline-fill=""/>
  <path style="stroke: none; fill-rule: nonzero; fill: rgb(14, 38, 73); fill-opacity: 1; --darkreader-inline-stroke:none; --darkreader-inline-fill:#d1ccc5;" d="M 51.66 259.293 C 54.379 259.293 57.465 260.676 60.895 264.309 C 60.895 264.309 66.828 261.027 73.277 261.027 C 78.988 261.027 85.113 263.598 87.883 273.297 C 87.883 273.297 110.656 274.039 102.789 288.785 L 17.887 288.785 C 17.887 288.785 18.637 273.117 34.977 273.117 C 35.969 273.117 37.016 273.176 38.125 273.297 C 38.125 273.297 43.008 259.293 51.66 259.293 M 51.66 247.633 C 41.184 247.633 34.492 255.324 30.746 261.703 C 13.695 263.77 6.727 278.254 6.246 288.227 C 6.094 291.414 7.254 294.523 9.453 296.832 C 11.652 299.141 14.699 300.445 17.887 300.445 L 102.789 300.445 C 107.094 300.445 111.043 298.074 113.07 294.277 C 118.23 284.602 115.633 277.328 113.629 273.852 C 109.621 266.91 102.063 263.902 96.023 262.602 C 91.262 254.098 83.281 249.363 73.277 249.363 C 69.453 249.363 65.883 250.074 62.93 250.957 C 59.34 248.746 55.566 247.633 51.66 247.633 Z M 51.66 247.633" data-darkreader-inline-stroke="" data-darkreader-inline-fill=""/>
  <path style="stroke: none; fill-rule: nonzero; fill-opacity: 1; --darkreader-inline-stroke:none; --darkreader-inline-fill:#b9fcea; fill: rgb(216, 250, 241);" d="M 268.418 154.48 C 266.824 154.48 265.297 153.828 264.199 152.672 C 263.098 151.52 262.52 149.965 262.598 148.371 C 263 139.949 269.281 127.469 284.898 127.156 C 287.543 121.809 293.16 113.328 302.191 113.328 C 305.73 113.328 309.195 114.656 312.539 117.289 C 315.367 116.215 319.426 115.059 323.809 115.059 C 329.031 115.059 337.945 116.805 342.652 127.707 C 347.68 128.43 355.59 130.535 359.113 136.633 C 360.824 139.602 362.102 144.57 358.457 151.398 C 357.445 153.297 355.469 154.48 353.32 154.48 L 268.418 154.48 Z M 268.418 154.48" data-darkreader-inline-stroke="" data-darkreader-inline-fill=""/>
  <path style="stroke: none; fill-rule: nonzero; fill: rgb(14, 38, 73); fill-opacity: 1; --darkreader-inline-stroke:none; --darkreader-inline-fill:#d1ccc5;" d="M 302.191 119.156 C 304.91 119.156 307.996 120.539 311.426 124.168 C 311.426 124.168 317.355 120.887 323.809 120.887 C 329.52 120.887 335.645 123.461 338.414 133.16 C 338.414 133.16 361.184 133.902 353.32 148.648 L 268.418 148.648 C 268.418 148.648 269.168 132.977 285.508 132.977 C 286.5 132.977 287.547 133.035 288.656 133.16 C 288.656 133.16 293.539 119.156 302.191 119.156 M 302.191 107.492 C 291.711 107.492 285.02 115.184 281.277 121.566 C 264.227 123.633 257.258 138.117 256.777 148.09 C 256.625 151.277 257.785 154.383 259.984 156.695 C 262.184 159.004 265.23 160.309 268.418 160.309 L 353.32 160.309 C 357.625 160.309 361.574 157.938 363.602 154.141 C 368.758 144.465 366.164 137.188 364.16 133.715 C 360.152 126.773 352.594 123.766 346.555 122.465 C 341.793 113.957 333.813 109.223 323.809 109.223 C 319.984 109.223 316.41 109.938 313.461 110.82 C 309.867 108.609 306.098 107.492 302.191 107.492 Z M 302.191 107.492" data-darkreader-inline-stroke="" data-darkreader-inline-fill=""/>
</svg>